<svg width="28" height="28" viewBox="0 0 28 28" fill="none" xmlns="http://www.w3.org/2000/svg">
<path d="M12.9241 4.51321C13.3643 3.62141 14.636 3.62141 15.0762 4.51321L17.3262 9.07149C17.5009 9.42531 17.8383 9.67066 18.2287 9.72773L23.2623 10.4635C24.2462 10.6073 24.6383 11.8167 23.926 12.5105L20.2856 16.0562C20.0026 16.3319 19.8734 16.7292 19.9402 17.1187L20.7991 22.1264C20.9672 23.1068 19.9382 23.8543 19.0578 23.3913L14.5587 21.0253C14.209 20.8414 13.7913 20.8414 13.4416 21.0253L8.94252 23.3913C8.06217 23.8543 7.03311 23.1068 7.20125 22.1264L8.06013 17.1187C8.12693 16.7292 7.99773 16.3319 7.71468 16.0562L4.07431 12.5105C3.362 11.8167 3.75414 10.6073 4.73804 10.4635L9.7716 9.72773C10.162 9.67066 10.4995 9.42531 10.6741 9.07149L12.9241 4.51321Z" fill="#FFAA00"/>
</svg>
